<svg width="54" height="54" viewBox="0 0 54 54" fill="none" xmlns="http://www.w3.org/2000/svg">
<circle cx="27" cy="27" r="27" fill="#24B65E"/>
<path d="M33.4701 31.83L33.8601 34.99C33.9601 35.82 33.0701 36.4 32.3601 35.97L28.1701 33.48C27.7101 33.48 27.2601 33.45 26.8201 33.39C27.5601 32.52 28.0001 31.42 28.0001 30.23C28.0001 27.39 25.5401 25.09 22.5001 25.09C21.3401 25.09 20.2701 25.42 19.3801 26C19.3501 25.75 19.3401 25.5 19.3401 25.24C19.3401 20.69 23.2901 17 28.1701 17C33.0501 17 37.0001 20.69 37.0001 25.24C37.0001 27.94 35.6101 30.33 33.4701 31.83Z" stroke="white" stroke-width="1.5" stroke-linecap="round" stroke-linejoin="round"/>
<path d="M28 30.23C28 31.42 27.56 32.52 26.82 33.39C25.83 34.59 24.26 35.36 22.5 35.36L19.89 36.91C19.45 37.18 18.89 36.81 18.95 36.3L19.2 34.33C17.86 33.4 17 31.91 17 30.23C17 28.47 17.94 26.92 19.38 26C20.27 25.42 21.34 25.09 22.5 25.09C25.54 25.09 28 27.39 28 30.23Z" stroke="white" stroke-width="1.5" stroke-linecap="round" stroke-linejoin="round"/>
</svg>
